<svg xmlns="http://www.w3.org/2000/svg" width="219" height="172.416" viewBox="0 0 219 172.416">
  <g id="Group_3" data-name="Group 3" transform="translate(0)">
    <path id="Path_2" data-name="Path 2" d="M169.123,705.986a5.455,5.455,0,0,0,.722-2.767c0-2.5-1.545-4.528-3.458-4.528s-3.458,2.028-3.458,4.528a5.455,5.455,0,0,0,.722,2.767,5.667,5.667,0,0,0,0,5.535,5.667,5.667,0,0,0,0,5.535,5.667,5.667,0,0,0,0,5.535,5.449,5.449,0,0,0-.722,2.767c0,2.5,1.545,4.526,3.458,4.526s3.458-2.026,3.458-4.526a5.448,5.448,0,0,0-.722-2.765,5.667,5.667,0,0,0,0-5.535,5.667,5.667,0,0,0,0-5.535,5.667,5.667,0,0,0,0-5.535Z" transform="translate(-149.882 -557.601)" fill="#3f3d56"/>
    <ellipse id="Ellipse_2" data-name="Ellipse 2" cx="3.458" cy="4.528" rx="3.458" ry="4.528" transform="translate(13.036 135.555)" fill="#3f3d56"/>
    <ellipse id="Ellipse_3" data-name="Ellipse 3" cx="3.458" cy="4.528" rx="3.458" ry="4.528" transform="translate(13.036 130.02)" fill="#3f3d56"/>
    <path id="Path_3" data-name="Path 3" d="M107.354,402.6a16.858,16.858,0,0,1-1.287-1.9l9.088-1.492-9.829.073a16.6,16.6,0,0,1-.316-13.128L118.2,393l-12.162-8.94A16.571,16.571,0,1,1,133.4,402.6a16.645,16.645,0,0,1,1.889,3.021l-11.8,6.135,12.579-4.222a16.586,16.586,0,0,1-2.67,15.56,16.569,16.569,0,1,1-26.04,0,16.577,16.577,0,0,1,0-20.488Z" transform="translate(-103.81 -305.924)" fill="#57b894"/>
    <path id="Path_4" data-name="Path 4" d="M136.992,543a16.5,16.5,0,0,1-3.544,10.244,16.569,16.569,0,1,1-26.04,0C105.172,550.421,136.992,541.137,136.992,543Z" transform="translate(-103.848 -436.076)" opacity="0.1"/>
    <path id="Path_5" data-name="Path 5" d="M981.421,738.538a4.149,4.149,0,0,0,.549-2.105c0-1.9-1.176-3.443-2.63-3.443s-2.63,1.545-2.63,3.443a4.149,4.149,0,0,0,.549,2.105,4.308,4.308,0,0,0,0,4.211,4.308,4.308,0,0,0,0,4.211,4.3,4.3,0,0,0,0,4.208,4.153,4.153,0,0,0-.549,2.105c0,1.9,1.178,3.445,2.63,3.445s2.63-1.545,2.63-3.445a4.153,4.153,0,0,0-.549-2.105,4.3,4.3,0,0,0,0-4.208,290470.47,290470.47,0,0,1,0-8.421Z" transform="translate(-784.078 -584.332)" fill="#3f3d56"/>
    <ellipse id="Ellipse_4" data-name="Ellipse 4" cx="2.63" cy="3.445" rx="2.63" ry="3.445" transform="translate(192.631 144.448)" fill="#3f3d56"/>
    <ellipse id="Ellipse_5" data-name="Ellipse 5" cx="2.63" cy="3.445" rx="2.63" ry="3.445" transform="translate(192.631 140.237)" fill="#3f3d56"/>
    <path id="Path_6" data-name="Path 6" d="M934.476,507.917a12.581,12.581,0,0,1-.98-1.443l6.914-1.137-7.479.057a12.647,12.647,0,0,1-.241-9.988l10.032,5.206-9.251-6.8a12.6,12.6,0,1,1,20.815,14.106,12.593,12.593,0,0,1,1.439,2.3l-8.975,4.663,9.573-3.217a12.6,12.6,0,0,1-2.032,11.837,12.6,12.6,0,1,1-19.81,0,12.605,12.605,0,0,1,0-15.584Z" transform="translate(-749.064 -393.042)" fill="#57b894"/>
    <path id="Path_7" data-name="Path 7" d="M956.982,614.554a12.543,12.543,0,0,1-2.7,7.792,12.6,12.6,0,1,1-19.81,0C932.782,620.2,956.982,613.14,956.982,614.554Z" transform="translate(-749.059 -491.887)" opacity="0.1"/>
    <path id="Path_8" data-name="Path 8" d="M408.184,177.54H364v-9.555a2.284,2.284,0,0,0-2.286-2.286H348.737v-10.18a1.439,1.439,0,0,0-1.439-1.439H330.577a1.441,1.441,0,0,0-1.439,1.439V165.7H313.892a2.286,2.286,0,0,0-2.293,2.286v9.549H269.473a.466.466,0,0,0-.463.466V304.87a.466.466,0,0,0,.463.466h28a.468.468,0,0,0,.466-.466V287.794a.468.468,0,0,1,.466-.466h11.828a.466.466,0,0,1,.463.466v17.067a.466.466,0,0,0,.461.466H366.5a.468.468,0,0,0,.463-.466V287.794a.466.466,0,0,1,.461-.466H379.25a.466.466,0,0,1,.466.466v17.067a.468.468,0,0,0,.466.466h28a.468.468,0,0,0,.463-.466V178.006A.466.466,0,0,0,408.184,177.54ZM292.927,281.41a.463.463,0,0,1-.461.461h-17.3a.461.461,0,0,1-.463-.461V275.5a.463.463,0,0,1,.463-.466h17.3a.466.466,0,0,1,.461.466Zm0-15.264a.463.463,0,0,1-.461.463h-17.3a.463.463,0,0,1-.463-.466v-5.9a.463.463,0,0,1,.463-.466h17.3a.463.463,0,0,1,.461.466Zm0-15.26a.463.463,0,0,1-.461.463h-17.3a.463.463,0,0,1-.463-.463v-5.9a.463.463,0,0,1,.463-.466h17.3a.466.466,0,0,1,.461.466Zm0-15.264a.461.461,0,0,1-.461.463h-17.3a.461.461,0,0,1-.463-.463v-5.905a.461.461,0,0,1,.463-.463h17.3a.461.461,0,0,1,.461.463Zm0-15.262a.466.466,0,0,1-.461.466h-17.3a.463.463,0,0,1-.463-.466v-5.908a.461.461,0,0,1,.463-.461h17.3a.463.463,0,0,1,.461.461Zm0-15.26a.463.463,0,0,1-.461.461h-17.3a.461.461,0,0,1-.463-.461v-5.908a.466.466,0,0,1,.463-.466h17.3a.466.466,0,0,1,.461.466Zm0-15.264a.463.463,0,0,1-.461.466h-17.3a.463.463,0,0,1-.463-.466v-5.9a.463.463,0,0,1,.463-.466h17.3a.463.463,0,0,1,.461.466Zm41,91.582a.461.461,0,0,1-.463.461H316.171a.466.466,0,0,1-.466-.461V275.5a.468.468,0,0,1,.466-.466h17.295a.463.463,0,0,1,.463.466Zm0-15.264a.463.463,0,0,1-.463.466H316.171a.466.466,0,0,1-.466-.466v-5.91a.466.466,0,0,1,.466-.466h17.295a.463.463,0,0,1,.463.466Zm0-15.26a.463.463,0,0,1-.463.463H316.171a.466.466,0,0,1-.466-.463v-5.91a.468.468,0,0,1,.466-.466h17.295a.463.463,0,0,1,.463.466Zm0-15.264a.461.461,0,0,1-.463.463H316.171a.463.463,0,0,1-.466-.463v-5.912a.463.463,0,0,1,.466-.463h17.295a.461.461,0,0,1,.463.463Zm0-15.262a.463.463,0,0,1-.463.466H316.171a.468.468,0,0,1-.466-.466v-5.914a.466.466,0,0,1,.466-.461h17.295a.461.461,0,0,1,.463.461Zm0-15.26a.461.461,0,0,1-.463.461H316.171a.466.466,0,0,1-.466-.461v-5.914a.468.468,0,0,1,.466-.466h17.295a.466.466,0,0,1,.463.466Zm0-15.264a.463.463,0,0,1-.463.466H316.171a.466.466,0,0,1-.466-.466v-5.91a.466.466,0,0,1,.466-.466h17.295a.463.463,0,0,1,.463.466Zm28.026,91.582a.463.463,0,0,1-.466.461h-17.3a.463.463,0,0,1-.463-.461V275.5a.466.466,0,0,1,.463-.466h17.295a.466.466,0,0,1,.466.466Zm0-15.264a.463.463,0,0,1-.466.466h-17.3a.466.466,0,0,1-.463-.466v-5.916a.466.466,0,0,1,.463-.466h17.295a.464.464,0,0,1,.466.466Zm0-15.26a.466.466,0,0,1-.466.463h-17.3a.466.466,0,0,1-.463-.463v-5.916a.466.466,0,0,1,.463-.466h17.295a.466.466,0,0,1,.466.466Zm0-15.264a.463.463,0,0,1-.466.463h-17.3a.463.463,0,0,1-.463-.463v-5.919a.463.463,0,0,1,.463-.463h17.295a.463.463,0,0,1,.466.463Zm0-15.262a.466.466,0,0,1-.466.466h-17.3a.466.466,0,0,1-.463-.466v-5.921a.463.463,0,0,1,.463-.461h17.295a.463.463,0,0,1,.466.461Zm0-15.26a.463.463,0,0,1-.466.461h-17.3a.463.463,0,0,1-.463-.461v-5.921a.468.468,0,0,1,.463-.466h17.295a.468.468,0,0,1,.466.466Zm0-15.264a.463.463,0,0,1-.466.466h-17.3a.466.466,0,0,1-.463-.466v-5.916a.466.466,0,0,1,.463-.466h17.295a.463.463,0,0,1,.466.466Zm41,91.562a.466.466,0,0,1-.466.461h-17.3a.463.463,0,0,1-.466-.461V275.5a.466.466,0,0,1,.466-.466h17.295a.468.468,0,0,1,.472.466Zm0-15.264a.466.466,0,0,1-.466.466h-17.3a.463.463,0,0,1-.466-.466v-5.9a.463.463,0,0,1,.466-.466h17.295a.466.466,0,0,1,.466.466Zm0-15.26a.466.466,0,0,1-.466.463h-17.3a.466.466,0,0,1-.466-.463v-5.9a.466.466,0,0,1,.466-.466h17.295a.468.468,0,0,1,.472.466Zm0-15.264a.463.463,0,0,1-.466.463h-17.3a.463.463,0,0,1-.466-.463v-5.905a.463.463,0,0,1,.466-.463h17.295a.463.463,0,0,1,.466.463Zm0-15.262a.468.468,0,0,1-.466.466h-17.3a.466.466,0,0,1-.466-.466v-5.908a.463.463,0,0,1,.466-.461h17.295a.466.466,0,0,1,.466.461Zm0-15.26a.466.466,0,0,1-.466.461h-17.3a.463.463,0,0,1-.466-.461v-5.908a.468.468,0,0,1,.466-.466h17.295a.468.468,0,0,1,.472.466Zm0-15.264a.466.466,0,0,1-.466.466h-17.3a.463.463,0,0,1-.466-.466v-5.9a.463.463,0,0,1,.466-.466h17.295a.466.466,0,0,1,.466.466Z" transform="translate(-232.554 -133.175)" fill="#d4d4d4"/>
    <path id="Path_9" data-name="Path 9" d="M286.776,67.659l-3.782,2.405,2.3-4.171A3.727,3.727,0,0,0,283,65.077h-.06a4.414,4.414,0,0,1-.786-.06l-1.282.812.549-1a4.579,4.579,0,0,1-2.242-1.7l-2.293,1.454,1.45-2.635a6.707,6.707,0,0,0-5.133-2.6,7.043,7.043,0,0,0-5.881,3.628,4.394,4.394,0,0,1-3.888,2.1h-.128c-2.633,0-4.769,2.986-4.769,6.669s2.136,6.669,4.769,6.669a3.566,3.566,0,0,0,1.66-.417,6.923,6.923,0,0,1,5.771-.113,6.007,6.007,0,0,0,4.908.011,6.9,6.9,0,0,1,5.72.11,3.546,3.546,0,0,0,1.642.408c2.633,0,4.769-2.986,4.769-6.669A8.481,8.481,0,0,0,286.776,67.659Z" transform="translate(-224.394 -59.35)" fill="#f2f2f2"/>
    <path id="Path_10" data-name="Path 10" d="M279.632,108.105a7.048,7.048,0,0,0-4.085.441,6.025,6.025,0,0,1-4.906,0,6.873,6.873,0,0,0-5.771.113,3.573,3.573,0,0,1-1.662.415c-2.339,0-4.283-2.357-4.689-5.464a4.5,4.5,0,0,0,1.17-1.26,6.578,6.578,0,0,1,11.736-.051,4.509,4.509,0,0,0,3.886,2.136h.06C277.236,104.433,278.849,105.927,279.632,108.105Z" transform="translate(-224.378 -90.032)" opacity="0.03"/>
    <path id="Path_11" data-name="Path 11" d="M904.533,151.138l-2.666,1.69,1.618-2.942a2.635,2.635,0,0,0-1.611-.576h-.042a3.289,3.289,0,0,1-.554-.042l-.9.574.386-.7a3.229,3.229,0,0,1-1.58-1.2l-1.615,1.039,1.02-1.858a4.71,4.71,0,0,0-3.621-1.829,4.962,4.962,0,0,0-4.144,2.558,3.09,3.09,0,0,1-2.741,1.476h-.09c-1.856,0-3.359,2.105-3.359,4.7s1.5,4.7,3.359,4.7a2.527,2.527,0,0,0,1.172-.293,4.855,4.855,0,0,1,4.067-.079,4.235,4.235,0,0,0,3.456,0,4.855,4.855,0,0,1,4.032.077,2.527,2.527,0,0,0,1.159.287c1.856,0,3.361-2.105,3.361-4.7A5.977,5.977,0,0,0,904.533,151.138Z" transform="translate(-712.319 -126.325)" fill="#f2f2f2"/>
    <path id="Path_12" data-name="Path 12" d="M899.534,179.659a4.963,4.963,0,0,0-2.869.311,4.228,4.228,0,0,1-3.458,0,4.855,4.855,0,0,0-4.067.079,2.518,2.518,0,0,1-1.17.294c-1.648,0-3.021-1.662-3.31-3.853a3.164,3.164,0,0,0,.823-.883,4.636,4.636,0,0,1,8.273-.029,3.182,3.182,0,0,0,2.739,1.505h.042A3.4,3.4,0,0,1,899.534,179.659Z" transform="translate(-712.342 -147.959)" opacity="0.03"/>
    <path id="Path_13" data-name="Path 13" d="M774.571,85.489l-1.865,1.183,1.132-2.066a1.847,1.847,0,0,0-1.128-.4h-.031a2.042,2.042,0,0,1-.386-.029l-.633.4.271-.494a2.236,2.236,0,0,1-1.1-.839l-1.132.717.715-1.3a3.31,3.31,0,0,0-2.536-1.282,3.474,3.474,0,0,0-2.9,1.792,2.176,2.176,0,0,1-1.92,1.035h-.062c-1.3,0-2.352,1.474-2.352,3.29s1.05,3.288,2.35,3.288a1.766,1.766,0,0,0,.819-.205,3.385,3.385,0,0,1,2.847-.055,3.011,3.011,0,0,0,1.218.26,2.979,2.979,0,0,0,1.2-.256,3.405,3.405,0,0,1,2.823.055,1.766,1.766,0,0,0,.812.2c1.3,0,2.352-1.474,2.352-3.29A4.192,4.192,0,0,0,774.571,85.489Z" transform="translate(-615.691 -76.518)" fill="#f2f2f2"/>
    <path id="Path_14" data-name="Path 14" d="M771.025,105.428a3.484,3.484,0,0,0-2.017.221,2.979,2.979,0,0,1-2.427,0,3.4,3.4,0,0,0-2.847.055,1.745,1.745,0,0,1-.819.205c-1.156,0-2.116-1.163-2.315-2.7a2.19,2.19,0,0,0,.576-.622,3.248,3.248,0,0,1,5.793-.024,2.222,2.222,0,0,0,1.918,1.055h.029A2.413,2.413,0,0,1,771.025,105.428Z" transform="translate(-615.66 -91.653)" opacity="0.03"/>
    <path id="Path_15" data-name="Path 15" d="M235.509,768.776c.455-.839-.06-1.867-.662-2.617a4.188,4.188,0,0,1-1.3-2.483c.022-1.37,1.476-2.18,2.648-2.906a12.9,12.9,0,0,0,2.372-1.907,3.491,3.491,0,0,0,.728-.975,3.986,3.986,0,0,0,.221-1.732q-.077-2.935-.291-5.866" transform="translate(-204.918 -597.814)" fill="none" stroke="#3f3d56" stroke-width="4"/>
    <path id="Path_16" data-name="Path 16" d="M254.205,742.612a2.138,2.138,0,0,0-1.068-1.752l-.479.947.015-1.145a2.138,2.138,0,1,0,1.532,1.951Z" transform="translate(-217.685 -590.242)" fill="#57b894"/>
    <path id="Path_17" data-name="Path 17" d="M237.731,804.379a2.138,2.138,0,0,1-4.038-.883,2.172,2.172,0,0,1,.139-.867,2.141,2.141,0,0,1,4,.022l-1.335,1.088,1.467-.34A2.116,2.116,0,0,1,237.731,804.379Z" transform="translate(-205.028 -637.534)" fill="#57b894"/>
    <path id="Path_18" data-name="Path 18" d="M239.327,781.492a2.138,2.138,0,0,1-2.236-2.037,2.115,2.115,0,0,1,.185-.973,2.141,2.141,0,0,1,1.373-1.185v.883l.483-.958h0a2.138,2.138,0,0,1,2.236,2.037,2.1,2.1,0,0,1-.091.728A2.141,2.141,0,0,1,239.327,781.492Z" transform="translate(-207.677 -618.8)" fill="#57b894"/>
    <path id="Path_19" data-name="Path 19" d="M262.8,765.822a2.141,2.141,0,1,1,.936-4l-.377,1.037.777-.748a2.129,2.129,0,0,1,.691,1.476,2.081,2.081,0,0,1-.053.589A2.138,2.138,0,0,1,262.8,765.822Z" transform="translate(-225.955 -606.584)" fill="#57b894"/>
    <path id="Path_20" data-name="Path 20" d="M253.915,747.317c-.494.055-.973.207-1.47.238a1.6,1.6,0,0,1-1.353-.472,6.529,6.529,0,0,1-.4-.7,1.516,1.516,0,0,0-.538-.505,2.138,2.138,0,1,0,4,1.419C254.076,747.3,253.994,747.308,253.915,747.317Z" transform="translate(-217.681 -594.377)" opacity="0.1"/>
    <path id="Path_21" data-name="Path 21" d="M262.851,770.152a2.141,2.141,0,0,1-2.035-3.052,1.6,1.6,0,0,1,.43.441,7.1,7.1,0,0,0,.424.706,1.758,1.758,0,0,0,1.419.5c.516-.022,1.013-.172,1.527-.221a1.272,1.272,0,0,0,.221-.013A2.139,2.139,0,0,1,262.851,770.152Z" transform="translate(-226.009 -610.914)" opacity="0.1"/>
    <path id="Path_22" data-name="Path 22" d="M239.327,785.95a2.138,2.138,0,0,1-2.236-2.037,2.115,2.115,0,0,1,.185-.973,1.763,1.763,0,0,1,.452.441,7.264,7.264,0,0,0,.463.719,1.969,1.969,0,0,0,1.514.532c.547-.013,1.039-.141,1.567-.183A2.14,2.14,0,0,1,239.327,785.95Z" transform="translate(-207.677 -623.259)" opacity="0.1"/>
    <path id="Path_23" data-name="Path 23" d="M237.731,809.22a2.138,2.138,0,0,1-4.038-.883,2.172,2.172,0,0,1,.139-.867,2.1,2.1,0,0,1,.47.419,8.876,8.876,0,0,0,.572.759,2.683,2.683,0,0,0,1.765.622A9.3,9.3,0,0,0,237.731,809.22Z" transform="translate(-205.028 -642.375)" opacity="0.1"/>
    <path id="Path_24" data-name="Path 24" d="M227.82,827.066a17.511,17.511,0,0,0,2.207-1.022c.519-.36,2.6-.8,2.723-.221s2.525,2.9.627,2.911-4.429.313-4.937,0S227.82,827.066,227.82,827.066Z" transform="translate(-200.453 -656.461)" fill="#656380"/>
    <path id="Path_25" data-name="Path 25" d="M233.4,833.882c-1.9.016-4.427.313-4.934,0-.386-.236-.541-1.081-.594-1.472h-.055s.106,1.362.613,1.671,3.03.013,4.937,0c.549,0,.739-.2.73-.49C234.023,833.769,233.818,833.88,233.4,833.882Z" transform="translate(-200.453 -661.812)" opacity="0.2"/>
    <path id="Path_26" data-name="Path 26" d="M766.662,790.709a1.715,1.715,0,0,1,.441-1.765,2.847,2.847,0,0,0,.87-1.668c-.013-.92-.991-1.463-1.765-1.951a8.724,8.724,0,0,1-1.591-1.28,2.359,2.359,0,0,1-.49-.662,2.691,2.691,0,0,1-.148-1.165q.053-1.971.2-3.937" transform="translate(-618.283 -619.627)" fill="none" stroke="#3f3d56" stroke-width="4"/>
    <path id="Path_27" data-name="Path 27" d="M758.134,773.169a1.437,1.437,0,0,1,.717-1.176l.322.636-.011-.77a1.407,1.407,0,0,1,.474-.055,1.437,1.437,0,1,1-1.5,1.366Z" transform="translate(-613.737 -614.577)" fill="#57b894"/>
    <path id="Path_28" data-name="Path 28" d="M769.181,814.68a1.434,1.434,0,1,0-.071-1.156l.9.728-.989-.221A1.439,1.439,0,0,0,769.181,814.68Z" transform="translate(-622.222 -646.363)" fill="#57b894"/>
    <path id="Path_29" data-name="Path 29" d="M768.141,799.262a1.434,1.434,0,0,0,1.5-1.368,1.409,1.409,0,0,0-.124-.662,1.43,1.43,0,0,0-.922-.794v.591l-.327-.644h0a1.439,1.439,0,0,0-1.5,1.368,1.5,1.5,0,0,0,.062.49A1.437,1.437,0,0,0,768.141,799.262Z" transform="translate(-620.464 -633.735)" fill="#57b894"/>
    <path id="Path_30" data-name="Path 30" d="M752.329,788.779a1.437,1.437,0,1,0-.636-2.688l.254.7-.521-.5a1.432,1.432,0,0,0-.463.991,1.4,1.4,0,0,0,.035.4A1.437,1.437,0,0,0,752.329,788.779Z" transform="translate(-608.148 -625.571)" fill="#57b894"/>
    <path id="Path_31" data-name="Path 31" d="M758.439,776.315c.331.035.662.139.986.159a1.068,1.068,0,0,0,.911-.327,4.835,4.835,0,0,0,.267-.468,1.024,1.024,0,0,1,.36-.34,1.4,1.4,0,0,1,.154.717,1.437,1.437,0,0,1-2.838.236C758.335,776.3,758.388,776.309,758.439,776.315Z" transform="translate(-613.852 -617.336)" opacity="0.1"/>
    <path id="Path_32" data-name="Path 32" d="M752.43,791.688a1.434,1.434,0,0,0,1.366-2.048,1.059,1.059,0,0,0-.3.3,4.3,4.3,0,0,1-.285.474,1.172,1.172,0,0,1-.951.333c-.346-.016-.682-.115-1.026-.146h-.146A1.437,1.437,0,0,0,752.43,791.688Z" transform="translate(-608.248 -628.48)" opacity="0.1"/>
    <path id="Path_33" data-name="Path 33" d="M768.386,802.26a1.434,1.434,0,0,0,1.5-1.368,1.409,1.409,0,0,0-.124-.662,1.153,1.153,0,0,0-.3.291,4.663,4.663,0,0,1-.313.485,1.324,1.324,0,0,1-1.015.355c-.357,0-.7-.095-1.053-.121A1.437,1.437,0,0,0,768.386,802.26Z" transform="translate(-620.71 -636.733)" opacity="0.1"/>
    <path id="Path_34" data-name="Path 34" d="M769.75,817.932a4.109,4.109,0,1,1,2.3-.892,5.667,5.667,0,0,1-.384.51,1.8,1.8,0,0,1-1.189.419A6.6,6.6,0,0,1,769.75,817.932Z" transform="translate(-622.79 -649.615)" opacity="0.1"/>
    <path id="Path_35" data-name="Path 35" d="M771.105,829.753a7.089,7.089,0,0,1-1.476-.534c-.342-.243-1.743-.534-1.827-.143s-1.7,1.94-.424,1.951a13.455,13.455,0,0,0,3.31-.15C771.026,830.669,771.105,829.753,771.105,829.753Z" transform="translate(-620.56 -659.065)" fill="#656380"/>
    <path id="Path_36" data-name="Path 36" d="M767.37,833.987a14.037,14.037,0,0,0,3.31-.15c.26-.157.364-.726.4-.986h.044s-.073.916-.413,1.123a13.6,13.6,0,0,1-3.31.15c-.371,0-.5-.135-.49-.329C766.956,833.9,767.1,833.987,767.37,833.987Z" transform="translate(-620.576 -662.155)" opacity="0.2"/>
    <rect id="Rectangle_13" data-name="Rectangle 13" width="112.326" height="0.441" transform="translate(43.119 171.962)" fill="#3f3d56"/>
    <rect id="Rectangle_14" data-name="Rectangle 14" width="59.583" height="0.441" transform="translate(159.417 171.962)" fill="#3f3d56"/>
    <rect id="Rectangle_15" data-name="Rectangle 15" width="37.295" height="0.441" transform="translate(1.852 171.962)" fill="#3f3d56"/>
  </g>
</svg>
