<svg id="Component_1_1" data-name="Component 1 – 1" xmlns="http://www.w3.org/2000/svg" width="169.963" height="98.118" viewBox="0 0 169.963 98.118">
  <text id="class" transform="translate(70.963 72.612)" fill="#5b3758" font-size="38" font-family="Raleway-Heavy, Raleway" font-weight="800"><tspan x="0" y="0">class</tspan></text>
  <path id="graduation-cap-solid" d="M62.237,8.921,34.341.35a7.989,7.989,0,0,0-4.679,0l-27.9,8.57a2.354,2.354,0,0,0,0,4.559l4.863,1.494a7.881,7.881,0,0,0-1.788,4.69,3.086,3.086,0,0,0-.255,5.3L2.033,36.455A1.6,1.6,0,0,0,3.594,38.4H9.205a1.6,1.6,0,0,0,1.562-1.947L8.214,24.967a3.078,3.078,0,0,0-.18-5.252A4.718,4.718,0,0,1,10.1,16.042l19.558,6.009a8,8,0,0,0,4.679,0l27.9-8.57A2.355,2.355,0,0,0,62.237,8.921ZM35.281,25.111a11.2,11.2,0,0,1-6.559,0l-14.5-4.455L12.8,32c0,3.535,8.6,6.4,19.2,6.4S51.2,35.537,51.2,32L49.784,20.654Z" transform="translate(0 15.484) rotate(-14)" fill="#5b3758"/>
  <text id="e" transform="translate(20.028 79.118)" fill="#5b3758" font-size="82" font-family="Raleway-Heavy, Raleway" font-weight="800"><tspan x="0" y="0">e</tspan></text>
</svg>
